<svg width="214" height="24" viewBox="0 0 214 24" fill="none" xmlns="http://www.w3.org/2000/svg">
<path d="M35.3667 15.0521H28.2494V23.2573H25.4277V0.936279H35.6485C37.634 0.936279 39.3117 1.50781 40.6807 2.65004C42.0494 3.79227 42.7343 5.57926 42.7343 8.01018C42.7343 11.6149 41.2607 13.8472 38.3135 14.7066L43.2987 23.2573H40.0693L35.3667 15.0521ZM28.2494 12.348H35.053C36.7462 12.348 37.9528 11.9659 38.6746 11.2012C39.3957 10.436 39.756 9.3721 39.756 8.01018C39.756 6.64784 39.3957 5.58389 38.6746 4.81918C37.9528 4.05405 36.7462 3.6719 35.053 3.6719H28.2494V12.348Z" fill="#3C4A41"/>
<path d="M62.8934 3.64034H50.352V20.5536H62.8934V23.2573H47.5308V0.936279H62.8934V3.64034Z" fill="#3C4A41"/>
<path d="M82.9592 3.64034H70.4183V20.5536H82.9592V23.2573H67.5962V0.936279H82.9592V3.64034Z" fill="#3C4A41"/>
<path d="M103.339 0.936279H106.16V23.2573H100.674L91.4558 3.64034H90.4841V23.2573H87.6628V0.936279H93.1491L102.367 20.5536H103.339V0.936279Z" fill="#3C4A41"/>
<path d="M113.308 16.6554C113.601 18.0594 114.322 19.128 115.472 19.862C116.621 20.5951 118.147 20.9621 120.049 20.9621C121.993 20.9621 123.467 20.6158 124.47 19.9247C125.473 19.2332 125.975 18.2795 125.975 17.0637C125.975 16.1836 125.714 15.4871 125.191 14.9732C124.669 14.4598 123.937 14.0562 122.997 13.7628C122.056 13.4695 120.697 13.1551 118.92 12.8197C117.248 12.5057 115.874 12.1488 114.797 11.7511C113.722 11.3525 112.838 10.7658 112.148 9.9906C111.459 9.21495 111.114 8.16699 111.114 6.84674C111.114 4.8552 111.82 3.28874 113.23 2.14651C114.641 1.00429 116.6 0.433594 119.109 0.433594C121.721 0.433594 123.733 1.03585 125.144 2.24079C126.555 3.44573 127.396 5.12792 127.668 7.28654H124.846C124.616 5.98733 124.052 4.97094 123.153 4.23779C122.254 3.50381 120.906 3.13681 119.109 3.13681C117.562 3.13681 116.313 3.46172 115.362 4.11153C114.411 4.76093 113.935 5.6418 113.935 6.75204C113.935 7.48603 114.16 8.06262 114.609 8.48096C115.059 8.90056 115.65 9.21495 116.381 9.42454C117.112 9.63371 118.085 9.84372 119.297 10.0529C121.491 10.4304 123.216 10.818 124.47 11.2166C125.724 11.6147 126.759 12.2645 127.574 13.1652C128.389 14.0667 128.797 15.3453 128.797 17.0009C128.797 19.0758 128.08 20.7214 126.649 21.9364C125.217 23.1523 122.923 23.7596 119.767 23.7596C117.154 23.7596 114.98 23.1628 113.246 21.9684C111.511 20.7736 110.487 19.0026 110.173 16.6554H113.308Z" fill="#3C4A41"/>
<path d="M0.296875 11.0283C0.296875 8.76444 0.699194 6.84109 1.5034 5.25906C2.30802 3.6766 3.42131 2.47714 4.84242 1.65982C6.26395 0.842077 7.87362 0.433838 9.67059 0.433838H12.2415C13.5165 0.433838 14.7398 0.716659 15.9106 1.28272C17.0806 1.84794 18.0839 2.67621 18.92 3.76625C19.7557 4.85545 20.3306 6.1555 20.6443 7.66388H17.6345C17.2372 6.30196 16.4637 5.20687 15.3143 4.37903C14.1649 3.55161 12.7119 3.13705 10.9561 3.13705C8.17641 3.13705 6.17534 3.89167 4.95244 5.40089C3.72955 6.90927 3.11852 8.86966 3.11852 11.2795V12.9142C3.11852 15.3034 3.72955 17.2424 4.95244 18.7301C6.17534 20.2183 8.17641 20.9624 10.9561 20.9624C12.858 20.9624 14.395 20.5011 15.565 19.5794C16.7358 18.6565 17.8227 16.3257 17.8227 14.5101H20.7384C20.7384 16.2878 19.9497 19.0079 19.1233 20.1922C18.298 21.3765 17.2843 22.2675 16.0828 22.8643C14.8805 23.4619 13.6005 23.7599 12.2415 23.7599H9.67059C7.87362 23.7599 6.26395 23.3516 4.84242 22.5343C3.42131 21.7166 2.30802 20.5171 1.5034 18.9347C0.699194 17.3526 0.296875 15.4293 0.296875 13.1654V11.0283Z" fill="#3C4A41"/>
<path fill-rule="evenodd" clip-rule="evenodd" d="M20.7383 11.8293H11.9152L8.06885 13.0587V14.5877H20.7383V11.8293Z" fill="#3C4A41"/>
<path fill-rule="evenodd" clip-rule="evenodd" d="M48.8782 13.4756H57.7013L61.5477 12.2467V10.7173H48.8782V13.4756Z" fill="#3C4A41"/>
<path fill-rule="evenodd" clip-rule="evenodd" d="M68.9448 13.4756H77.7676L81.6139 12.2467V10.7173H68.9448V13.4756Z" fill="#3C4A41"/>
<path d="M148.773 22.3977C148.502 22.5694 148.22 22.7247 147.927 22.864C146.673 23.4617 145.338 23.76 143.921 23.76H141.239C139.366 23.76 137.687 23.3514 136.204 22.5341C134.722 21.7163 133.561 20.5169 132.722 18.9344C131.883 17.3524 131.463 15.429 131.463 13.1652V11.028C131.463 8.7642 131.883 6.84127 132.722 5.25881C133.561 3.67636 134.722 2.47732 136.204 1.66C137.687 0.841834 139.366 0.433594 141.239 0.433594H143.921C145.251 0.433594 146.527 0.716414 147.748 1.28248C148.104 1.44788 148.446 1.63558 148.773 1.84559V6.02437C148.347 5.39181 147.798 4.843 147.126 4.37879C145.927 3.55137 144.412 3.13681 142.58 3.13681C139.681 3.13681 137.594 3.89142 136.319 5.40065C135.043 6.90945 134.406 8.86942 134.406 11.2793V12.9139C134.406 15.3032 135.043 17.2421 136.319 18.7303C137.594 20.2181 139.681 20.9621 142.58 20.9621C144.564 20.9621 146.167 20.5009 147.387 19.5792C147.938 19.1629 148.4 18.6874 148.773 18.1524V22.3977Z" fill="#3C4A41"/>
<path d="M163.932 0.433594C165.729 0.433594 167.339 0.847304 168.761 1.67473C170.181 2.50341 171.294 3.71382 172.099 5.30637C172.904 6.89892 173.306 8.80629 173.306 11.028V13.1652C173.306 15.429 172.904 17.3524 172.099 18.9344C171.294 20.5169 170.181 21.7163 168.761 22.5341C167.339 23.3514 165.729 23.7596 163.932 23.7596H161.361C159.563 23.7596 157.954 23.3514 156.533 22.5341C155.111 21.7163 153.999 20.5169 153.194 18.9344C152.389 17.3524 151.987 15.429 151.987 13.1652V11.028C151.987 8.7642 152.389 6.84085 153.194 5.25881C153.999 3.67636 155.111 2.47689 156.533 1.65957C157.954 0.841833 159.563 0.433594 161.361 0.433594H163.932ZM170.485 11.2793C170.485 8.86942 169.873 6.90903 168.651 5.40064C167.428 3.89142 165.426 3.13681 162.647 3.13681C159.867 3.13681 157.865 3.89142 156.643 5.40064C155.42 6.90903 154.809 8.86942 154.809 11.2793V12.9139C154.809 15.3032 155.42 17.2261 156.643 18.6827C157.865 20.1393 159.867 20.8679 162.647 20.8679C165.426 20.8679 167.428 20.1393 168.651 18.6827C169.873 17.2261 170.485 15.3032 170.485 12.9139V11.2793Z" fill="#3C4A41"/>
<path d="M187.76 0.936279C189.745 0.936279 191.422 1.50781 192.792 2.65004C194.16 3.79227 194.845 5.57926 194.845 8.01018C194.845 10.5463 194.176 12.3535 192.838 13.4326C191.501 14.5121 189.808 15.0521 187.76 15.0521H180.36V23.2573H177.539V0.936279H187.76ZM187.164 12.348C188.857 12.348 190.063 11.9659 190.785 11.2012C191.506 10.436 191.867 9.3721 191.867 8.01018C191.867 6.64784 191.506 5.58389 190.785 4.81918C190.063 4.05405 188.857 3.6719 187.164 3.6719H180.36V12.348H187.164Z" fill="#3C4A41"/>
<path d="M213.967 3.64034H201.429V20.5536H213.967V23.2573H198.607V0.936279H213.967V3.64034Z" fill="#3C4A41"/>
<path fill-rule="evenodd" clip-rule="evenodd" d="M199.956 13.4756H208.779L212.625 12.2467V10.7173H199.956V13.4756Z" fill="#3C4A41"/>
</svg>
